<svg width="171" height="34" viewBox="0 0 171 34" fill="none" xmlns="http://www.w3.org/2000/svg">
<path d="M48.3182 9.54546V13.1818H37.5455V9.54546H48.3182ZM40.0114 27V8.2841C40.0114 7.01895 40.2576 5.9697 40.75 5.13637C41.25 4.30304 41.9318 3.67804 42.7955 3.26137C43.6591 2.8447 44.6402 2.63637 45.7387 2.63637C46.4811 2.63637 47.1591 2.69319 47.7727 2.80683C48.394 2.92046 48.8561 3.02274 49.1591 3.11365L48.2955 6.75001C48.1061 6.6894 47.8712 6.63258 47.5909 6.57955C47.3182 6.52652 47.0379 6.50001 46.75 6.50001C46.0379 6.50001 45.5417 6.66668 45.2614 7.00001C44.9811 7.32577 44.8409 7.7841 44.8409 8.37501V27H40.0114Z" fill="black"/>
<path d="M50.6356 27V9.54546H55.4765V27H50.6356ZM53.0674 7.29546C52.3477 7.29546 51.7303 7.05683 51.2151 6.57955C50.7076 6.09471 50.4538 5.51516 50.4538 4.84092C50.4538 4.17425 50.7076 3.60228 51.2151 3.12501C51.7303 2.64016 52.3477 2.39774 53.0674 2.39774C53.7871 2.39774 54.4007 2.64016 54.9083 3.12501C55.4235 3.60228 55.681 4.17425 55.681 4.84092C55.681 5.51516 55.4235 6.09471 54.9083 6.57955C54.4007 7.05683 53.7871 7.29546 53.0674 7.29546Z" fill="black"/>
<path d="M63.5552 3.72728V27H58.7143V3.72728H63.5552Z" fill="black"/>
<path d="M74.7476 27.3409C72.9522 27.3409 71.4067 26.9773 70.1113 26.25C68.8234 25.5152 67.831 24.4773 67.134 23.1364C66.437 21.7879 66.0885 20.1932 66.0885 18.3523C66.0885 16.5568 66.437 14.9811 67.134 13.625C67.831 12.2689 68.812 11.2121 70.0772 10.4546C71.3499 9.69698 72.8423 9.31819 74.5544 9.31819C75.706 9.31819 76.7779 9.5038 77.7704 9.87501C78.7704 10.2386 79.6416 10.7879 80.384 11.5227C81.134 12.2576 81.7173 13.1818 82.134 14.2955C82.5507 15.4015 82.759 16.697 82.759 18.1818V19.5114H68.0204V16.5114H78.2022C78.2022 15.8144 78.0507 15.197 77.7476 14.6591C77.4446 14.1212 77.0241 13.7008 76.4863 13.3977C75.956 13.0871 75.3385 12.9318 74.634 12.9318C73.8991 12.9318 73.2476 13.1023 72.6794 13.4432C72.1188 13.7765 71.6794 14.2273 71.3613 14.7955C71.0431 15.3561 70.8802 15.9811 70.8726 16.6705V19.5227C70.8726 20.3864 71.0317 21.1326 71.3499 21.7614C71.6757 22.3902 72.134 22.875 72.7249 23.2159C73.3158 23.5568 74.0166 23.7273 74.8272 23.7273C75.3651 23.7273 75.8575 23.6515 76.3044 23.5C76.7514 23.3485 77.134 23.1212 77.4522 22.8182C77.7704 22.5152 78.0128 22.1439 78.1794 21.7046L82.6567 22C82.4294 23.0758 81.9635 24.0152 81.259 24.8182C80.562 25.6136 79.6605 26.2349 78.5544 26.6818C77.456 27.1212 76.187 27.3409 74.7476 27.3409Z" fill="black"/>
<path d="M93.1417 33.9091C91.5735 33.9091 90.2288 33.6932 89.1076 33.2614C87.994 32.8371 87.1076 32.2576 86.4485 31.5227C85.7894 30.7879 85.3614 29.9621 85.1644 29.0455L89.6417 28.4432C89.7781 28.7917 89.994 29.1174 90.2894 29.4205C90.5849 29.7235 90.9751 29.9659 91.4599 30.1477C91.9523 30.3371 92.5508 30.4318 93.2554 30.4318C94.3084 30.4318 95.1758 30.1743 95.8576 29.6591C96.547 29.1515 96.8917 28.2993 96.8917 27.1023V23.9091H96.6872C96.4751 24.3939 96.1569 24.8523 95.7326 25.2841C95.3084 25.7159 94.7629 26.0682 94.0963 26.3409C93.4296 26.6136 92.6341 26.75 91.7099 26.75C90.3993 26.75 89.2061 26.447 88.1304 25.8409C87.0622 25.2273 86.2099 24.2917 85.5735 23.0341C84.9448 21.7689 84.6304 20.1705 84.6304 18.2386C84.6304 16.2614 84.9523 14.6099 85.5963 13.2841C86.2402 11.9583 87.0963 10.9659 88.1644 10.3068C89.2402 9.64774 90.4182 9.31819 91.6985 9.31819C92.6758 9.31819 93.494 9.48486 94.1531 9.81819C94.8122 10.1439 95.3425 10.553 95.744 11.0455C96.1531 11.5303 96.4675 12.0076 96.6872 12.4773H96.869V9.54546H101.676V27.1705C101.676 28.6553 101.312 29.8977 100.585 30.8977C99.8576 31.8977 98.8501 32.6477 97.5622 33.1477C96.2819 33.6553 94.8084 33.9091 93.1417 33.9091ZM93.244 23.1136C94.0243 23.1136 94.6834 22.9205 95.2213 22.5341C95.7667 22.1402 96.1834 21.5796 96.4713 20.8523C96.7667 20.1174 96.9144 19.2386 96.9144 18.2159C96.9144 17.1932 96.7705 16.3068 96.4826 15.5568C96.1947 14.7993 95.7781 14.2121 95.2326 13.7955C94.6872 13.3788 94.0243 13.1705 93.244 13.1705C92.4485 13.1705 91.7781 13.3864 91.2326 13.8182C90.6872 14.2424 90.2743 14.8333 89.994 15.5909C89.7137 16.3485 89.5735 17.2235 89.5735 18.2159C89.5735 19.2235 89.7137 20.0947 89.994 20.8296C90.2819 21.5568 90.6947 22.1212 91.2326 22.5227C91.7781 22.9167 92.4485 23.1136 93.244 23.1136Z" fill="black"/>
<path d="M116.081 19.5682V9.54546H120.922V27H116.274V23.8296H116.093C115.699 24.8523 115.043 25.6743 114.127 26.2955C113.218 26.9167 112.108 27.2273 110.797 27.2273C109.631 27.2273 108.604 26.9621 107.718 26.4318C106.831 25.9015 106.138 25.1477 105.638 24.1705C105.146 23.1932 104.896 22.0227 104.888 20.6591V9.54546H109.729V19.7955C109.737 20.8258 110.013 21.6402 110.559 22.2386C111.104 22.8371 111.835 23.1364 112.752 23.1364C113.335 23.1364 113.881 23.0038 114.388 22.7386C114.896 22.4659 115.305 22.0644 115.615 21.5341C115.934 21.0038 116.089 20.3485 116.081 19.5682Z" fill="black"/>
<path d="M129.132 27.3296C128.018 27.3296 127.026 27.1364 126.154 26.75C125.283 26.3561 124.594 25.7765 124.086 25.0114C123.586 24.2386 123.336 23.2765 123.336 22.125C123.336 21.1553 123.514 20.3409 123.87 19.6818C124.226 19.0227 124.711 18.4924 125.325 18.0909C125.938 17.6894 126.635 17.3864 127.416 17.1818C128.204 16.9773 129.029 16.8333 129.893 16.75C130.908 16.6439 131.726 16.5455 132.348 16.4546C132.969 16.3561 133.419 16.2121 133.7 16.0227C133.98 15.8333 134.12 15.553 134.12 15.1818V15.1136C134.12 14.3939 133.893 13.8371 133.438 13.4432C132.991 13.0493 132.355 12.8523 131.529 12.8523C130.658 12.8523 129.965 13.0455 129.45 13.4318C128.935 13.8106 128.594 14.2879 128.427 14.8636L123.95 14.5C124.177 13.4394 124.624 12.5227 125.291 11.75C125.957 10.9697 126.817 10.3712 127.87 9.95455C128.931 9.53031 130.158 9.31819 131.552 9.31819C132.522 9.31819 133.45 9.43183 134.336 9.6591C135.23 9.88637 136.022 10.2386 136.711 10.7159C137.408 11.1932 137.957 11.8068 138.359 12.5568C138.76 13.2993 138.961 14.1894 138.961 15.2273V27H134.37V24.5796H134.234C133.954 25.125 133.579 25.6061 133.109 26.0227C132.639 26.4318 132.075 26.7538 131.416 26.9886C130.757 27.2159 129.995 27.3296 129.132 27.3296ZM130.518 23.9886C131.23 23.9886 131.859 23.8485 132.404 23.5682C132.95 23.2803 133.378 22.8939 133.688 22.4091C133.999 21.9243 134.154 21.375 134.154 20.7614V18.9091C134.003 19.0076 133.794 19.0985 133.529 19.1818C133.272 19.2576 132.98 19.3296 132.654 19.3977C132.329 19.4583 132.003 19.5152 131.677 19.5682C131.351 19.6136 131.056 19.6553 130.791 19.6932C130.223 19.7765 129.726 19.9091 129.302 20.0909C128.878 20.2727 128.548 20.5189 128.313 20.8296C128.079 21.1326 127.961 21.5114 127.961 21.9659C127.961 22.625 128.2 23.1288 128.677 23.4773C129.162 23.8182 129.776 23.9886 130.518 23.9886Z" fill="black"/>
<path d="M142.077 27V9.54546H146.77V12.5909H146.952C147.27 11.5076 147.804 10.6894 148.554 10.1364C149.304 9.57577 150.168 9.29546 151.145 9.29546C151.387 9.29546 151.649 9.31061 151.929 9.34092C152.209 9.37122 152.456 9.41289 152.668 9.46592V13.7614C152.44 13.6932 152.126 13.6326 151.725 13.5796C151.323 13.5265 150.956 13.5 150.622 13.5C149.91 13.5 149.274 13.6553 148.713 13.9659C148.16 14.2689 147.721 14.6932 147.395 15.2386C147.077 15.7841 146.918 16.4129 146.918 17.125V27H142.077Z" fill="black"/>
<path d="M160.15 27.2841C158.824 27.2841 157.623 26.9432 156.548 26.2614C155.479 25.572 154.631 24.5606 154.002 23.2273C153.381 21.8864 153.07 20.2424 153.07 18.2955C153.07 16.2955 153.392 14.6326 154.036 13.3068C154.68 11.9735 155.536 10.9773 156.604 10.3182C157.68 9.65152 158.858 9.31819 160.139 9.31819C161.116 9.31819 161.93 9.48486 162.582 9.81819C163.241 10.1439 163.771 10.553 164.173 11.0455C164.582 11.5303 164.892 12.0076 165.104 12.4773H165.252V3.72728H170.082V27H165.309V24.2046H165.104C164.877 24.6894 164.555 25.1705 164.139 25.6477C163.729 26.1174 163.195 26.5076 162.536 26.8182C161.885 27.1288 161.089 27.2841 160.15 27.2841ZM161.684 23.4318C162.464 23.4318 163.123 23.2197 163.661 22.7955C164.207 22.3636 164.623 21.7614 164.911 20.9886C165.207 20.2159 165.354 19.3106 165.354 18.2727C165.354 17.2349 165.211 16.3333 164.923 15.5682C164.635 14.803 164.218 14.2121 163.673 13.7955C163.127 13.3788 162.464 13.1705 161.684 13.1705C160.889 13.1705 160.218 13.3864 159.673 13.8182C159.127 14.25 158.714 14.8485 158.434 15.6136C158.154 16.3788 158.014 17.2652 158.014 18.2727C158.014 19.2879 158.154 20.1856 158.434 20.9659C158.722 21.7386 159.135 22.3447 159.673 22.7841C160.218 23.2159 160.889 23.4318 161.684 23.4318Z" fill="black"/>
<g opacity="0.5">
<path fill-rule="evenodd" clip-rule="evenodd" d="M16.8 28H11.2C5.92026 28 3.28041 28 1.6402 26.3598C1.66893e-07 24.7197 0 22.0797 0 16.8V11.2C0 5.92026 1.66893e-07 3.28041 1.6402 1.6402C3.28041 1.66893e-07 5.93417 0 11.2417 0C12.0901 0 12.77 -3.39001e-08 13.342 0.023324C13.3232 0.135226 13.3133 0.249382 13.3129 0.364798L13.3 4.33296C13.2999 5.8689 13.2997 7.2263 13.4469 8.32042C13.6063 9.50639 13.9724 10.6922 14.9402 11.6599C15.9079 12.6277 17.0937 12.9938 18.2797 13.1533C19.3739 13.3004 20.7312 13.3003 22.2671 13.3001H22.4H27.9404C28 14.0482 28 14.9661 28 16.1881V16.8C28 22.0797 28 24.7197 26.3598 26.3598C24.7197 28 22.0797 28 16.8 28Z" fill="#072CA5"/>
</g>
<path d="M13.0132 0.356162L13 4.32685C12.9999 5.86377 12.9997 7.22203 13.1499 8.31685C13.3126 9.50357 13.6862 10.6901 14.6737 11.6586C15.6613 12.6268 16.8711 12.9932 18.0814 13.1527C19.1979 13.3 20.5829 13.2998 22.1501 13.2997H27.9391C27.9569 13.5177 27.9694 13.7499 27.9783 14C27.9783 13.6253 27.9533 13.5203 27.9391 13.2997C27.8583 12.0466 27.3739 10.5282 26.6164 9.51579C26.4831 9.33755 26.3919 9.23057 26.2096 9.01658C25.0774 7.68771 23.5871 6.03233 22.2857 4.89425C21.1274 3.88129 19.541 2.77306 18.1573 1.86688C16.9687 1.08834 16.3743 0.699059 15.5593 0.409733C15.3433 0.333034 15.0583 0.248308 14.8352 0.194444C14.2866 0.0620173 13.7526 0.0159561 13 0L13.0132 0.356162Z" fill="#072CA5"/>
</svg>
