<svg width="28" height="28" viewBox="0 0 28 28" fill="none" xmlns="http://www.w3.org/2000/svg">
<g opacity="0.5">
<path fill-rule="evenodd" clip-rule="evenodd" d="M16.8 28H11.2C5.92026 28 3.28041 28 1.6402 26.3598C1.66893e-07 24.7197 0 22.0797 0 16.8V11.2C0 5.92026 1.66893e-07 3.28041 1.6402 1.6402C3.28041 1.66893e-07 5.93417 0 11.2417 0C12.0901 0 12.77 -3.39001e-08 13.342 0.023324C13.3232 0.135226 13.3133 0.249382 13.3129 0.364798L13.3 4.33296C13.2999 5.8689 13.2997 7.2263 13.4469 8.32042C13.6063 9.50639 13.9724 10.6922 14.9402 11.6599C15.9079 12.6277 17.0937 12.9938 18.2797 13.1533C19.3739 13.3004 20.7312 13.3003 22.2671 13.3001H22.4H27.9404C28 14.0482 28 14.9661 28 16.1881V16.8C28 22.0797 28 24.7197 26.3598 26.3598C24.7197 28 22.0797 28 16.8 28Z" fill="#3954ED"/>
</g>
<path d="M13.0132 0.356162L13 4.32685C12.9999 5.86377 12.9997 7.22203 13.1499 8.31685C13.3126 9.50357 13.6862 10.6901 14.6737 11.6586C15.6613 12.6268 16.8711 12.9932 18.0814 13.1527C19.1979 13.3 20.5829 13.2998 22.1501 13.2997H27.9391C27.9569 13.5177 27.9694 13.7499 27.9783 14C27.9783 13.6253 27.9533 13.5203 27.9391 13.2997C27.8583 12.0466 27.3739 10.5282 26.6164 9.51579C26.4831 9.33755 26.3919 9.23057 26.2096 9.01658C25.0774 7.68771 23.5871 6.03233 22.2857 4.89425C21.1274 3.88129 19.541 2.77306 18.1573 1.86688C16.9687 1.08834 16.3743 0.699059 15.5593 0.409733C15.3433 0.333034 15.0583 0.248308 14.8352 0.194444C14.2866 0.0620173 13.7526 0.0159561 13 0L13.0132 0.356162Z" fill="#3954ED"/>
</svg>
